<svg width="17" height="12" viewBox="0 0 17 12" fill="none" xmlns="http://www.w3.org/2000/svg">
<path d="M12.65 6.99996H1.5C1.21667 6.99996 0.979337 6.90396 0.788004 6.71196C0.59667 6.51996 0.50067 6.28263 0.500003 5.99996C0.499337 5.7173 0.595337 5.47996 0.788004 5.28796C0.98067 5.09596 1.218 4.99996 1.5 4.99996H12.65L9.8 2.14996C9.6 1.94996 9.504 1.71663 9.512 1.44996C9.52 1.1833 9.616 0.949963 9.8 0.749963C10 0.549963 10.2377 0.445963 10.513 0.437963C10.7883 0.429963 11.0257 0.525629 11.225 0.724963L15.8 5.29996C15.9 5.39996 15.971 5.5083 16.013 5.62496C16.055 5.74163 16.0757 5.86663 16.075 5.99996C16.0743 6.1333 16.0537 6.2583 16.013 6.37496C15.9723 6.49163 15.9013 6.59996 15.8 6.69996L11.225 11.275C11.025 11.475 10.7877 11.571 10.513 11.563C10.2383 11.555 10.0007 11.4506 9.8 11.25C9.61667 11.05 9.52067 10.8166 9.512 10.55C9.50334 10.2833 9.59934 10.05 9.8 9.84996L12.65 6.99996Z" />
</svg>
