<svg width="16" height="16" viewBox="0 0 16 16" fill="none" xmlns="http://www.w3.org/2000/svg">
<path d="M6 11.9999C5.63333 11.9999 5.31956 11.8695 5.05867 11.6086C4.79778 11.3477 4.66711 11.0337 4.66667 10.6666V2.66659C4.66667 2.29992 4.79733 1.98614 5.05867 1.72525C5.32 1.46436 5.63378 1.3337 6 1.33325H12C12.3667 1.33325 12.6807 1.46392 12.942 1.72525C13.2033 1.98659 13.3338 2.30036 13.3333 2.66659V10.6666C13.3333 11.0333 13.2029 11.3473 12.942 11.6086C12.6811 11.8699 12.3671 12.0004 12 11.9999H6ZM3.33333 14.6666C2.96667 14.6666 2.65289 14.5361 2.392 14.2753C2.13111 14.0144 2.00044 13.7004 2 13.3333V4.66659C2 4.4777 2.064 4.31947 2.192 4.19192C2.32 4.06436 2.47822 4.00036 2.66667 3.99992C2.85511 3.99947 3.01356 4.06347 3.142 4.19192C3.27044 4.32036 3.33422 4.47859 3.33333 4.66659V13.3333H10C10.1889 13.3333 10.3473 13.3973 10.4753 13.5253C10.6033 13.6533 10.6671 13.8115 10.6667 13.9999C10.6662 14.1884 10.6022 14.3468 10.4747 14.4753C10.3471 14.6037 10.1889 14.6675 10 14.6666H3.33333Z" fill="black"/>
</svg>
