<svg width="25" height="24" viewBox="0 0 25 24" fill="none" xmlns="http://www.w3.org/2000/svg">
<path d="M15 18C14.3 18 13.7083 17.7583 13.225 17.275C12.7417 16.7917 12.5 16.2 12.5 15.5C12.5 14.8 12.7417 14.2083 13.225 13.725C13.7083 13.2417 14.3 13 15 13C15.7 13 16.2917 13.2417 16.775 13.725C17.2583 14.2083 17.5 14.8 17.5 15.5C17.5 16.2 17.2583 16.7917 16.775 17.275C16.2917 17.7583 15.7 18 15 18ZM5.5 22C4.95 22 4.47933 21.8043 4.088 21.413C3.69667 21.0217 3.50067 20.5507 3.5 20V6C3.5 5.45 3.696 4.97934 4.088 4.588C4.48 4.19667 4.95067 4.00067 5.5 4H6.5V3C6.5 2.71667 6.596 2.47934 6.788 2.288C6.98 2.09667 7.21733 2.00067 7.5 2C7.78267 1.99934 8.02033 2.09534 8.213 2.288C8.40567 2.48067 8.50133 2.718 8.5 3V4H16.5V3C16.5 2.71667 16.596 2.47934 16.788 2.288C16.98 2.09667 17.2173 2.00067 17.5 2C17.7827 1.99934 18.0203 2.09534 18.213 2.288C18.4057 2.48067 18.5013 2.718 18.5 3V4H19.5C20.05 4 20.521 4.196 20.913 4.588C21.305 4.98 21.5007 5.45067 21.5 6V20C21.5 20.55 21.3043 21.021 20.913 21.413C20.5217 21.805 20.0507 22.0007 19.5 22H5.5ZM5.5 20H19.5V10H5.5V20Z" fill="#AEAEB2"/>
</svg>
