<svg width="25" height="24" viewBox="0 0 25 24" fill="none" xmlns="http://www.w3.org/2000/svg">
<path d="M3.16669 19C2.61669 19 2.14602 18.8043 1.75469 18.413C1.36335 18.0217 1.16735 17.5507 1.16669 17V7C1.16669 6.45 1.36269 5.97933 1.75469 5.588C2.14669 5.19667 2.61735 5.00067 3.16669 5H13.1667C13.7167 5 14.1877 5.196 14.5797 5.588C14.9717 5.98 15.1674 6.45067 15.1667 7V17C15.1667 17.55 14.971 18.021 14.5797 18.413C14.1884 18.805 13.7174 19.0007 13.1667 19H3.16669ZM18.1667 11C17.8834 11 17.646 10.904 17.4547 10.712C17.2634 10.52 17.1674 10.2827 17.1667 10V6C17.1667 5.71667 17.2627 5.47933 17.4547 5.288C17.6467 5.09667 17.884 5.00067 18.1667 5H22.1667C22.45 5 22.6877 5.096 22.8797 5.288C23.0717 5.48 23.1674 5.71733 23.1667 6V10C23.1667 10.2833 23.0707 10.521 22.8787 10.713C22.6867 10.905 22.4494 11.0007 22.1667 11H18.1667ZM19.1667 9H21.1667V7H19.1667V9ZM3.16669 17H13.1667V7H3.16669V17ZM5.16669 15H11.1667C11.3667 15 11.5167 14.9083 11.6167 14.725C11.7167 14.5417 11.7 14.3667 11.5667 14.2L9.94169 12.025C9.84169 11.8917 9.70835 11.825 9.54169 11.825C9.37502 11.825 9.24169 11.8917 9.14169 12.025L7.66669 14L6.69169 12.7C6.59169 12.5667 6.45835 12.5 6.29169 12.5C6.12502 12.5 5.99169 12.5667 5.89169 12.7L4.76669 14.2C4.63335 14.3667 4.61669 14.5417 4.71669 14.725C4.81669 14.9083 4.96669 15 5.16669 15ZM18.1667 19C17.8834 19 17.646 18.904 17.4547 18.712C17.2634 18.52 17.1674 18.2827 17.1667 18V14C17.1667 13.7167 17.2627 13.4793 17.4547 13.288C17.6467 13.0967 17.884 13.0007 18.1667 13H22.1667C22.45 13 22.6877 13.096 22.8797 13.288C23.0717 13.48 23.1674 13.7173 23.1667 14V18C23.1667 18.2833 23.0707 18.521 22.8787 18.713C22.6867 18.905 22.4494 19.0007 22.1667 19H18.1667ZM19.1667 17H21.1667V15H19.1667V17Z" fill="#AEAEB2"/>
</svg>
