<svg width="25" height="24" viewBox="0 0 25 24" fill="none" xmlns="http://www.w3.org/2000/svg">
<path d="M4.83337 20V11C4.28337 11 3.81271 10.8043 3.42137 10.413C3.03004 10.0217 2.83404 9.55067 2.83337 9V7C2.83337 6.45 3.02937 5.97933 3.42137 5.588C3.81337 5.19667 4.28404 5.00067 4.83337 5H8.03337C7.95004 4.85 7.89604 4.69167 7.87137 4.525C7.84671 4.35833 7.83404 4.18333 7.83337 4C7.83337 3.16667 8.12504 2.45833 8.70837 1.875C9.29171 1.29167 10 1 10.8334 1C11.2167 1 11.575 1.071 11.9084 1.213C12.2417 1.355 12.55 1.55067 12.8334 1.8C13.1167 1.53333 13.425 1.33333 13.7584 1.2C14.0917 1.06667 14.45 1 14.8334 1C15.6667 1 16.375 1.29167 16.9584 1.875C17.5417 2.45833 17.8334 3.16667 17.8334 4C17.8334 4.18333 17.8167 4.35433 17.7834 4.513C17.75 4.67167 17.7 4.834 17.6334 5H20.8334C21.3834 5 21.8544 5.196 22.2464 5.588C22.6384 5.98 22.834 6.45067 22.8334 7V9C22.8334 9.55 22.6377 10.021 22.2464 10.413C21.855 10.805 21.384 11.0007 20.8334 11V20C20.8334 20.55 20.6377 21.021 20.2464 21.413C19.855 21.805 19.384 22.0007 18.8334 22H6.83337C6.28337 22 5.81271 21.8043 5.42137 21.413C5.03004 21.0217 4.83404 20.5507 4.83337 20ZM14.8334 3C14.55 3 14.3127 3.096 14.1214 3.288C13.93 3.48 13.834 3.71733 13.8334 4C13.8327 4.28267 13.9287 4.52033 14.1214 4.713C14.314 4.90567 14.5514 5.00133 14.8334 5C15.1154 4.99867 15.353 4.90267 15.5464 4.712C15.7397 4.52133 15.8354 4.284 15.8334 4C15.8314 3.716 15.7354 3.47867 15.5454 3.288C15.3554 3.09733 15.118 3.00133 14.8334 3ZM9.83337 4C9.83337 4.28333 9.92937 4.521 10.1214 4.713C10.3134 4.905 10.5507 5.00067 10.8334 5C11.116 4.99933 11.3537 4.90333 11.5464 4.712C11.739 4.52067 11.8347 4.28333 11.8334 4C11.832 3.71667 11.736 3.47933 11.5454 3.288C11.3547 3.09667 11.1174 3.00067 10.8334 3C10.5494 2.99933 10.312 3.09533 10.1214 3.288C9.93071 3.48067 9.83471 3.718 9.83337 4ZM4.83337 7V9H11.8334V7H4.83337ZM11.8334 20V11H6.83337V20H11.8334ZM13.8334 20H18.8334V11H13.8334V20ZM20.8334 9V7H13.8334V9H20.8334Z" fill="#AEAEB2"/>
</svg>
