<svg width="16" height="16" viewBox="0 0 16 16" fill="none" xmlns="http://www.w3.org/2000/svg">
<path d="M12.2105 3.78949H3.7895V12.2105H12.2105V3.78949Z" fill="white"/>
<path d="M12.2105 16L16 12.2105L14.1053 11.8873L12.2105 12.2105L11.8647 13.9436L12.2105 16Z" fill="#EA4335"/>
<path d="M0 12.2105V14.7368C0 15.4348 0.56525 16 1.26312 16H3.7895L4.17856 14.1053L3.7895 12.2105L1.72494 11.8873L0 12.2105Z" fill="#188038"/>
<path d="M16 3.7895V1.26312C16 0.56525 15.4348 0 14.7369 0H12.2105C11.98 0.93975 11.8647 1.63133 11.8647 2.07475C11.8647 2.51813 11.98 3.08971 12.2105 3.7895C13.0486 4.0295 13.6802 4.1495 14.1053 4.1495C14.5303 4.1495 15.1619 4.02954 16 3.7895Z" fill="#1967D2"/>
<path d="M16 3.78949H12.2105V12.2105H16V3.78949Z" fill="#FBBC04"/>
<path d="M12.2105 12.2105H3.7895V16H12.2105V12.2105Z" fill="#34A853"/>
<path d="M12.2105 0H1.26319C0.56525 0 0 0.56525 0 1.26312V12.2105H3.7895V3.7895H12.2105V0Z" fill="#4285F4"/>
<path d="M5.51687 10.3221C5.20212 10.1095 4.98419 9.799 4.86525 9.38837L5.59581 9.08737C5.66206 9.34 5.77785 9.53579 5.94319 9.67475C6.10737 9.81368 6.30737 9.88212 6.54106 9.88212C6.77998 9.88212 6.98523 9.80947 7.15681 9.66418C7.32844 9.51893 7.41475 9.33368 7.41475 9.1095C7.41475 8.88 7.32423 8.69262 7.14319 8.54737C6.96212 8.40212 6.73475 8.3295 6.46319 8.3295H6.04106V7.60637H6.42C6.65367 7.60637 6.8505 7.54318 7.0105 7.41681C7.1705 7.29056 7.2505 7.11787 7.2505 6.89787C7.2505 6.70212 7.17894 6.54631 7.03581 6.4295C6.89269 6.31262 6.71156 6.25368 6.49156 6.25368C6.27681 6.25368 6.10631 6.31056 5.98 6.42525C5.85373 6.54026 5.75881 6.68553 5.70419 6.84737L4.98106 6.54631C5.07681 6.27475 5.25262 6.03475 5.5105 5.82737C5.76837 5.62 6.09787 5.51581 6.49787 5.51581C6.79369 5.51581 7.06 5.57268 7.29581 5.68737C7.53156 5.80212 7.71681 5.96106 7.8505 6.16318C7.98425 6.36631 8.0505 6.59368 8.0505 6.84631C8.0505 7.10418 7.98844 7.32212 7.86425 7.50106C7.74006 7.68 7.58737 7.81681 7.40631 7.91262V7.95575C7.6401 8.05215 7.84317 8.21047 7.99369 8.41368C8.14631 8.61893 8.22319 8.86418 8.22319 9.15056C8.22319 9.43681 8.1505 9.69262 8.00525 9.91681C7.86 10.1411 7.659 10.3179 7.40419 10.4463C7.14844 10.5747 6.86106 10.6401 6.54212 10.6401C6.17262 10.6411 5.83162 10.5347 5.51687 10.3221ZM10.0041 6.69681L9.20206 7.27681L8.801 6.66843L10.2399 5.6305H10.7915V10.5263H10.0041V6.69681Z" fill="#4285F4"/>
</svg>
