<svg width="31" height="53" viewBox="0 0 31 53" fill="none" xmlns="http://www.w3.org/2000/svg">
<path d="M24.2451 47.5263C24.7112 47.3438 25.2158 47.9667 24.8218 48.2754C22.3908 50.1799 19.3277 51.3158 15.9999 51.3158C8.09361 51.3158 1.68421 44.9065 1.68421 37C1.68421 29.0937 8.09361 22.6842 15.9999 22.6842C18.7084 22.6842 21.2406 23.4352 23.4003 24.7421C23.8284 25.0012 23.4018 25.6815 22.9172 25.557C21.995 25.3202 21.0283 25.1942 20.0322 25.1942C13.6467 25.1942 8.47028 30.3706 8.47028 36.7559C8.47028 43.1414 13.6467 48.3178 20.0322 48.3178C21.5187 48.3178 22.9397 48.0373 24.2451 47.5263Z" fill="#F4D68D"/>
<path fill-rule="evenodd" clip-rule="evenodd" d="M0 37C0 45.8367 7.16345 53 15.9999 53C19.7175 53 23.1437 51.7296 25.8604 49.6012C26.3537 49.2148 26.6424 48.6393 26.6476 48.0164C26.6522 47.4529 26.4274 46.9897 26.1787 46.6741C25.7175 46.0889 24.7366 45.5252 23.6312 45.9579C22.5182 46.3936 21.3052 46.6336 20.0322 46.6336C14.5769 46.6336 10.1545 42.2112 10.1545 36.7559C10.1545 31.3008 14.5769 26.8784 20.0322 26.8784C20.8858 26.8784 21.7117 26.9863 22.4982 27.1883C23.649 27.4839 24.5537 26.8036 24.9399 26.1688C25.1484 25.8261 25.3159 25.3398 25.244 24.7814C25.1646 24.1639 24.8095 23.6262 24.2723 23.3012C21.8566 21.8394 19.0239 21 15.9999 21C7.16343 21 0 28.1635 0 37ZM20.8795 23.5367C19.3567 22.9848 17.7136 22.6842 15.9999 22.6842C8.09361 22.6842 1.68421 29.0937 1.68421 37C1.68421 44.9065 8.09361 51.3158 15.9999 51.3158C18.3228 51.3158 20.5167 50.7623 22.4567 49.7803C22.922 49.5448 23.3727 49.2846 23.8071 49.0015C24.0792 48.8241 24.345 48.6377 24.6039 48.4428C24.677 48.3877 24.7497 48.3319 24.8218 48.2754C25.2158 47.9667 24.7112 47.3438 24.2451 47.5263C24.2425 47.5273 24.2399 47.5283 24.2373 47.5293C23.9269 47.6506 23.61 47.7588 23.2872 47.8533C22.8395 47.9844 22.3805 48.0892 21.912 48.1658C21.3002 48.2658 20.6723 48.3178 20.0322 48.3178C13.6467 48.3178 8.47028 43.1414 8.47028 36.7559C8.47028 30.3706 13.6467 25.1942 20.0322 25.1942C20.1998 25.1942 20.3666 25.1977 20.5325 25.2048C21.0057 25.2249 21.4715 25.2735 21.9282 25.3489C22.26 25.4036 22.5869 25.4725 22.9085 25.5548C22.9114 25.5556 22.9143 25.5563 22.9172 25.557C23.4018 25.6815 23.8284 25.0012 23.4003 24.7421C23.3216 24.6945 23.2424 24.6476 23.1627 24.6014C22.883 24.4395 22.5973 24.2867 22.3061 24.1436C21.844 23.9165 21.368 23.7137 20.8795 23.5367Z" fill="#312A17"/>
<path d="M23.3758 31.5703L24.6891 34.2308L27.626 34.658C28.3098 34.7576 28.5828 35.5975 28.088 36.0802L25.9629 38.1513L26.4646 41.0766C26.5814 41.7577 25.8666 42.2763 25.2549 41.9551L22.6281 40.5741L20.0014 41.9551C19.3897 42.2763 18.6749 41.7577 18.7917 41.0766L19.2934 38.1513L17.1683 36.0802C16.6734 35.5975 16.9465 34.7576 17.6304 34.658L20.5671 34.2308L21.8806 31.5703C22.1864 30.9502 23.07 30.9502 23.3758 31.5703Z" fill="#F4D68D"/>
<path fill-rule="evenodd" clip-rule="evenodd" d="M27.626 34.658L24.6891 34.2308L23.3758 31.5703C23.07 30.9502 22.1864 30.9502 21.8806 31.5703L20.5671 34.2308L17.6304 34.658C16.9465 34.7576 16.6734 35.5975 17.1683 36.0802L19.2934 38.1513L18.7917 41.0766C18.6749 41.7577 19.3897 42.2763 20.0014 41.9551L22.6281 40.5741L25.2549 41.9551C25.8666 42.2763 26.5814 41.7577 26.4646 41.0766L25.9629 38.1513L28.088 36.0802C28.5828 35.5975 28.3098 34.7576 27.626 34.658ZM27.7725 38.7394L29.2642 37.2857C30.7574 35.8288 29.9337 33.2921 27.8687 32.9914L25.8075 32.6916L24.8863 30.8253C24.8862 30.8251 24.8864 30.8255 24.8863 30.8253C23.9627 28.9536 21.294 28.9531 20.3703 30.8247C20.3702 30.8249 20.3704 30.8245 20.3703 30.8247L19.4488 32.6916L17.3879 32.9913C15.3233 33.292 14.4985 35.8287 15.9922 37.2858L17.4837 38.7394L17.1317 40.7919C16.7787 42.851 18.9397 44.4151 20.7845 43.4461L22.6281 42.4769L24.4711 43.4458C26.3157 44.4145 28.4778 42.8515 28.1245 40.7919C28.1245 40.7919 28.1245 40.7919 28.1245 40.7919L27.7725 38.7394Z" fill="#312A17"/>
<path fill-rule="evenodd" clip-rule="evenodd" d="M14 22L14 -1.31134e-07L17 0L17 22L14 22Z" fill="#312A17"/>
</svg>
