<svg width="25" height="24" viewBox="0 0 25 24" fill="none" xmlns="http://www.w3.org/2000/svg">
<path d="M5.5 19H14.5V15C14.5 14.7167 14.596 14.4793 14.788 14.288C14.98 14.0967 15.2173 14.0007 15.5 14H19.5V5H5.5V19ZM5.5 21C4.95 21 4.47933 20.8043 4.088 20.413C3.69667 20.0217 3.50067 19.5507 3.5 19V5C3.5 4.45 3.696 3.97933 4.088 3.588C4.48 3.19667 4.95067 3.00067 5.5 3H19.5C20.05 3 20.521 3.196 20.913 3.588C21.305 3.98 21.5007 4.45067 21.5 5V14.175C21.5 14.4417 21.45 14.696 21.35 14.938C21.25 15.18 21.1083 15.3923 20.925 15.575L16.075 20.425C15.8917 20.6083 15.6793 20.75 15.438 20.85C15.1967 20.95 14.9423 21 14.675 21H5.5ZM11.5 14H8.5C8.21667 14 7.97933 13.904 7.788 13.712C7.59667 13.52 7.50067 13.2827 7.5 13C7.49933 12.7173 7.59533 12.48 7.788 12.288C7.98067 12.096 8.218 12 8.5 12H11.5C11.7833 12 12.021 12.096 12.213 12.288C12.405 12.48 12.5007 12.7173 12.5 13C12.4993 13.2827 12.4033 13.5203 12.212 13.713C12.0207 13.9057 11.7833 14.0013 11.5 14ZM16.5 10H8.5C8.21667 10 7.97933 9.904 7.788 9.712C7.59667 9.52 7.50067 9.28267 7.5 9C7.49933 8.71733 7.59533 8.48 7.788 8.288C7.98067 8.096 8.218 8 8.5 8H16.5C16.7833 8 17.021 8.096 17.213 8.288C17.405 8.48 17.5007 8.71733 17.5 9C17.4993 9.28267 17.4033 9.52033 17.212 9.713C17.0207 9.90567 16.7833 10.0013 16.5 10Z" fill="#AEAEB2"/>
</svg>
