<svg width="36" height="36" viewBox="0 0 36 36" fill="none" xmlns="http://www.w3.org/2000/svg">
<path d="M18 31.9875C17.65 31.9875 17.3 31.925 16.95 31.8C16.6 31.675 16.2875 31.4875 16.0125 31.2375C14.3875 29.7375 12.95 28.275 11.7 26.85C10.45 25.425 9.4065 24.044 8.5695 22.707C7.7325 21.37 7.095 20.0825 6.657 18.8445C6.219 17.6065 6 16.425 6 15.3C6 11.55 7.2065 8.5625 9.6195 6.3375C12.0325 4.1125 14.826 3 18 3C21.174 3 23.968 4.1125 26.382 6.3375C28.796 8.5625 30.002 11.55 30 15.3C30 16.425 29.7815 17.6065 29.3445 18.8445C28.9075 20.0825 28.27 21.37 27.432 22.707C26.594 24.044 25.55 25.425 24.3 26.85C23.05 28.275 21.6125 29.7375 19.9875 31.2375C19.7125 31.4875 19.4 31.675 19.05 31.8C18.7 31.925 18.35 31.9875 18 31.9875ZM18 18C18.825 18 19.5315 17.7065 20.1195 17.1195C20.7075 16.5325 21.001 15.826 21 15C20.999 14.174 20.7055 13.468 20.1195 12.882C19.5335 12.296 18.827 12.002 18 12C17.173 11.998 16.467 12.292 15.882 12.882C15.297 13.472 15.003 14.178 15 15C14.997 15.822 15.291 16.5285 15.882 17.1195C16.473 17.7105 17.179 18.004 18 18Z" fill="#5B8568"/>
</svg>
