<svg width="22" height="16" viewBox="0 0 22 16" fill="none" xmlns="http://www.w3.org/2000/svg">
<g clip-path="url(#clip0_107_633)">
<path d="M0 0H21.3333V16H0V0Z" fill="#012169"/>
<path d="M2.5 0L10.6333 6.03333L18.7333 0H21.3333V2.06667L13.3333 8.03333L21.3333 13.9667V16H18.6667L10.6667 10.0333L2.7 16H0V14L7.96667 8.06667L0 2.13333V0H2.5Z" fill="white"/>
<path d="M14.1333 9.36667L21.3333 14.6667V16L12.3 9.36667H14.1333ZM8 10.0333L8.2 11.2L1.8 16H0L8 10.0333ZM21.3333 0V0.1L13.0333 6.36667L13.1 4.9L19.6667 0H21.3333ZM0 0L7.96667 5.86667H5.96667L0 1.4V0Z" fill="#C8102E"/>
<path d="M8.03333 0V16H13.3667V0H8.03333ZM0 5.33333V10.6667H21.3333V5.33333H0Z" fill="white"/>
<path d="M0 6.43333V9.63333H21.3333V6.43333H0ZM9.1 0V16H12.3V0H9.1Z" fill="#C8102E"/>
</g>
<rect x="0.25" y="0.25" width="20.8333" height="15.5" stroke="black" stroke-width="0.5"/>
<defs>
<clipPath id="clip0_107_633">
<rect width="21.3333" height="16" fill="white"/>
</clipPath>
</defs>
</svg>
